:SAMPLES-PER-SECOND 30
:FULLY-SPECIFIED
:DEGREES
33
root  78.0375 40.3275 -4.38258 -158.042 -88.2088 158.571
RightUpLeg  -0.356351 -8.79782 -8.15203
RightLeg  4.86385 -1.99219 2.35852
RightFoot  -3.93544 -0.17955 2.35748
RightToes  -1.74624e-010 0 -3.6325e-017
Spine  3.26393 -0.435947 -0.100482
Spine1  5.9286 -0.869763 1.29415
HEad  -7.18386 4.84458 -1.72596
LeftShoulder1  9.73625 -12.8573 -51.9183
LeftArm  -13.5687 10.3911 -25.5383
LeftForeArm  26.1897 -9.57633 -4.32826
LeftHand  -0.244104 0.0205437 5.32207
RightShoulder  5.96732 9.1944 40.8076
RightArm  -12.4926 -10.9872 29.1506
RightForeArm  8.27947 11.9039 5.43621
RightHand  -0.42812 -0.443622 -9.98753
LeftUpLeg  0.681679 6.77596 4.20809
LeftLeg  2.34644 17.6379 -4.63706
LeftFoot  -3.29684 0.162809 -2.02379
LeftToes  1.61887e-010 9.40759e-012 5.52375e-011
34
root  77.9069 40.3062 -4.48471 -159.028 -87.8857 159.62
RightUpLeg  -0.699052 -8.6455 -7.88294
RightLeg  5.76299 -1.83181 1.95057
RightFoot  -4.82994 -0.164233 2.309
RightToes  -1.74624e-010 0 -3.6325e-017
Spine  3.23101 -0.566775 -0.491578
Spine1  6.36769 -1.13903 1.76995
HEad  -8.19878 4.84981 -1.84505
LeftShoulder1  10.0553 -13.0668 -52.9107
LeftArm  -14.0463 10.3363 -29.9614
LeftForeArm  27.857 -7.81204 -4.15525
LeftHand  -0.244104 0.0205437 5.32207
RightShoulder  6.2482 9.35796 42.2922
RightArm  -12.1385 -12.3847 33.6807
RightForeArm  7.76817 10.5695 5.82224
RightHand  -0.22863 -2.13815 -8.08174
LeftUpLeg  0.790852 6.87946 4.32733
LeftLeg  2.56418 17.7133 -4.59762
LeftFoot  -3.60459 0.180232 -2.3438
LeftToes  1.61887e-010 9.40759e-012 5.52375e-011
35
root  77.7639 40.2845 -4.61896 -158 -87.7004 158.676
RightUpLeg  -1.00181 -8.41845 -7.56867
RightLeg  6.61988 -1.92537 1.49314
RightFoot  -5.77322 -0.15439 2.3693
RightToes  -1.74624e-010 0 -3.6325e-017
Spine  3.06987 -0.777507 -1.23564
Spine1  7.07138 -1.64037 2.79211
HEad  -9.63214 4.97909 -2.58117
LeftShoulder1  10.3474 -13.2893 -53.699
LeftArm  -13.2788 9.87504 -31.562
LeftForeArm  32.4286 -8.21728 -4.33994
LeftHand  -0.244104 0.0205437 5.32207
RightShoulder  6.43746 9.47104 43.2531
RightArm  -14.0672 -13.7093 36.2412
RightForeArm  -1.98664 9.79294 6.30267
RightHand  -0.243481 -2.60366 -9.32677
LeftUpLeg  0.777509 6.92703 4.42191
LeftLeg  3.00312 17.8105 -4.40634
LeftFoot  -4.06204 0.190983 -2.61903
LeftToes  1.61887e-010 9.40759e-012 5.52375e-011
36
root  77.5879 40.2571 -4.76433 -158.47 -87.5609 159.188
RightUpLeg  -1.14451 -8.33054 -7.29476
RightLeg  7.40596 -1.87939 1.23152
RightFoot  -6.71034 -0.146927 2.50438
RightToes  -1.74624e-010 0 -3.6325e-017
Spine  2.77486 -1.09052 -1.70107
Spine1  8.05143 -2.227 3.66906
HEad  -10.8351 5.18587 -3.60264
LeftShoulder1  10.3576 -13.389 -53.4439
LeftArm  -10.0189 9.13649 -30.7018
LeftForeArm  35.9451 -10.5562 -5.12215
LeftHand  -0.244104 0.0205437 5.32207
RightShoulder  6.39206 9.42629 43.0838
RightArm  -16.9648 -14.5705 36.4989
RightForeArm  -10.0196 10.1633 6.22326
RightHand  -0.611779 -0.0276817 -13.2808
LeftUpLeg  0.848941 7.01865 4.62873
LeftLeg  3.46613 17.8235 -4.21246
LeftFoot  -4.5687 0.20018 -2.91947
LeftToes  1.61887e-010 9.40759e-012 5.52375e-011
37
root  77.3756 40.2271 -4.91586 -160.982 -87.3596 161.758
RightUpLeg  -1.08115 -8.47632 -7.10608
RightLeg  7.90515 -1.53026 1.28914
RightFoot  -7.5482 -0.134653 2.51402
RightToes  -1.74624e-010 0 -3.6325e-017
Spine  3.00998 -1.3864 -1.79049
Spine1  8.16541 -2.67737 4.18288
HEad  -11.0891 5.56574 -4.46338
LeftShoulder1  10.108 -13.3471 -52.324
LeftArm  -4.66273 8.86101 -28.953
LeftForeArm  33.4355 -13.6563 -5.61328
LeftHand  -0.244104 0.0205437 5.32207
RightShoulder  6.14985 9.21172 42.0913
RightArm  -16.3696 -14.7188 34.9657
RightForeArm  -4.64563 10.8779 5.86405
RightHand  -1.03399 2.69662 -15.0566
LeftUpLeg  1.05203 7.18598 4.96597
LeftLeg  3.76565 17.711 -4.1215
LeftFoot  -4.9546 0.214088 -3.30332
LeftToes  1.61887e-010 9.40759e-012 5.52375e-011
38
root  77.1399 40.2017 -5.08822 -162.648 -87.0923 163.658
RightUpLeg  -0.996898 -8.65423 -6.95852
RightLeg  8.08531 -1.21279 1.45863
RightFoot  -8.32745 -0.12011 2.41524
RightToes  -1.74624e-010 0 -3.6325e-017
Spine  3.4105 -1.63065 -1.87332
Spine1  7.79043 -3.03925 4.64726
HEad  -11.0734 6.04709 -5.00053
LeftShoulder1  9.86709 -13.2587 -51.3709
LeftArm  -0.509656 8.95401 -27.2439
LeftForeArm  27.8726 -16.4567 -5.26098
LeftHand  -0.244104 0.0205437 5.32207
RightShoulder  5.97088 9.15552 40.9719
RightArm  -10.1154 -14.1648 32.6883
RightForeArm  5.79279 11.622 6.0935
RightHand  -1.05906 2.94759 -14.9091
LeftUpLeg  1.13472 7.32311 5.25862
LeftLeg  4.02525 17.7196 -4.01309
LeftFoot  -5.34161 0.223603 -3.65428
LeftToes  1.61887e-010 9.40759e-012 5.52375e-011
39
root  76.8706 40.1774 -5.29252 -163.536 -86.8267 164.955
RightUpLeg  -1.01887 -8.63469 -6.70835
RightLeg  8.20488 -1.19556 1.50328
RightFoot  -9.18818 -0.107955 2.43307
RightToes  -1.74624e-010 0 -3.6325e-017
Spine  3.33483 -1.82413 -1.91274
Spine1  7.93284 -3.36393 5.10459
HEad  -11.5976 6.38276 -5.30312
LeftShoulder1  9.76884 -13.1967 -51.0533
LeftArm  0.958441 8.95428 -25.5218
LeftForeArm  24.7431 -19.1839 -4.40498
LeftHand  -0.244104 0.0205437 5.32207
RightShoulder  5.93303 9.38054 39.9169
RightArm  0.178705 -14.0359 30.7418
RightForeArm  6.55921 14.4405 6.52179
RightHand  -0.853603 1.60592 -14.2659
LeftUpLeg  1.05392 7.44524 5.53725
LeftLeg  4.35998 17.8764 -3.84336
LeftFoot  -5.88707 0.225415 -3.99123
LeftToes  1.61887e-010 9.40759e-012 5.52375e-011
40
root  76.5422 40.1414 -5.52464 -165.996 -86.5611 167.805
RightUpLeg  -0.992216 -8.46191 -6.28447
RightLeg  8.45363 -1.27938 1.45273
RightFoot  -10.1972 -0.0951833 2.61373
RightToes  -1.74624e-010 0 -3.6325e-017
Spine  2.71522 -1.94132 -1.40089
Spine1  8.90539 -3.50052 5.00971
HEad  -12.9561 6.43152 -5.47395
LeftShoulder1  9.68199 -13.1535 -50.735
LeftArm  0.852085 8.86672 -23.8735
LeftForeArm  25.4168 -22.8369 -3.75973
LeftHand  -0.244104 0.0205437 5.32207
RightShoulder  5.87664 9.60459 38.7541
RightArm  9.46632 -15.2252 29.7273
RightForeArm  -1.19851 20.1707 5.75951
RightHand  -0.593814 -0.0429779 -12.9231
LeftUpLeg  1.11546 7.666 6.01064
LeftLeg  4.67576 17.8548 -3.71448
LeftFoot  -6.42929 0.234243 -4.55915
LeftToes  1.61887e-010 9.40759e-012 5.52375e-011
41
root  76.1559 40.0855 -5.78399 -168.25 -86.2439 170.395
RightUpLeg  -0.90401 -8.35314 -5.8318
RightLeg  8.89803 -1.19771 1.38799
RightFoot  -11.3779 -0.0764059 2.73186
RightToes  -1.74624e-010 0 -3.6325e-017
Spine  2.31727 -1.95448 -0.505529
Spine1  9.60211 -3.35165 4.29561
HEad  -14.3666 6.40723 -5.44658
LeftShoulder1  9.43694 -13.0339 -49.8153
LeftArm  -0.970047 9.36063 -22.6716
LeftForeArm  29.1083 -27.8797 -4.41431
LeftHand  -0.244104 0.0205437 5.32207
RightShoulder  5.67833 9.50212 37.6279
RightArm  10.2342 -17.3848 29.4631
RightForeArm  -3.03088 27.0764 5.85433
RightHand  -0.418718 -1.14936 -11.3872
LeftUpLeg  1.30484 7.85425 6.53385
LeftLeg  5.09943 17.7435 -3.52074
LeftFoot  -6.9857 0.246812 -5.38396
LeftToes  1.61887e-010 9.40759e-012 5.52375e-011
42
root  75.7372 39.9952 -6.08479 -166.987 -85.9874 169.61
RightUpLeg  -1.20268 -8.44594 -5.43542
RightLeg  9.94978 -1.0246 1.16478
RightFoot  -12.831 -0.0528807 2.63701
RightToes  -1.74624e-010 0 -3.6325e-017
Spine  2.39346 -1.95379 -0.00721953
Spine1  9.43322 -3.17279 3.71507
HEad  -15.4883 6.41367 -5.46083
LeftShoulder1  9.09203 -12.8118 -48.6481
LeftArm  -2.89039 10.7359 -21.9651
LeftForeArm  32.0698 -34.1439 -5.75782
LeftHand  -0.244104 0.0205437 5.32207
RightShoulder  5.45497 9.18496 36.9838
RightArm  6.42119 -19.6877 29.937
RightForeArm  0.385564 34.3884 7.67502
RightHand  -0.283991 -2.22648 -10.166
LeftUpLeg  1.01574 8.14779 6.82457
LeftLeg  6.37611 17.5956 -2.88994
LeftFoot  -8.19773 0.222121 -6.31318
LeftToes  1.61887e-010 9.40759e-012 5.52375e-011
43
root  75.3115 39.815 -6.43023 -165.434 -86.1291 168.616
RightUpLeg  -2.22553 -8.72727 -4.75071
RightLeg  12.4009 -1.01433 0.606266
RightFoot  -14.6728 -0.0275703 2.46747
RightToes  -1.74624e-010 0 -3.6325e-017
Spine  2.78332 -2.04398 0.159196
Spine1  8.87862 -3.22765 3.81914
HEad  -16.1028 6.35976 -5.88918
LeftShoulder1  8.86367 -12.64 -47.9244
LeftArm  -4.60987 12.4728 -21.2608
LeftForeArm  33.3551 -40.8451 -7.52243
LeftHand  -0.244104 0.0205437 5.32207
RightShoulder  5.36162 8.99955 36.8771
RightArm  1.97454 -21.9154 31.3313
RightForeArm  1.10163 42.2046 10.0819
RightHand  -0.158081 -3.73167 -10.2628
LeftUpLeg  -0.358833 11.0494 7.09825
LeftLeg  9.67418 14.5912 -1.22581
LeftFoot  -10.5281 0.114259 -7.56129
LeftToes  1.61887e-010 9.40759e-012 5.52375e-011
44
root  74.9118 39.4568 -6.7853 -174.704 -86.9386 178.081
RightUpLeg  -3.69918 -9.165 -3.29591
RightLeg  16.6757 -1.32049 -0.245052
RightFoot  -16.9591 0.00204977 2.37889
RightToes  -1.74624e-010 0 -3.6325e-017
Spine  3.95926 -2.21063 1.03105
Spine1  8.16446 -3.42174 4.40262
HEad  -16.6312 6.3253 -6.98597
LeftShoulder1  8.83378 -12.6549 -47.7151
LeftArm  -5.68769 13.8479 -20.5396
LeftForeArm  33.5134 -47.3986 -9.73274
LeftHand  -0.244104 0.0205437 5.32207
RightShoulder  5.39956 9.04498 37.0193
RightArm  -3.77116 -24.2793 33.5862
RightForeArm  0.0907633 51.3385 14.1379
RightHand  -0.079472 -4.78721 -11.9646
LeftUpLeg  -3.11492 16.6066 7.70577
LeftLeg  15.8556 7.89189 1.65929
LeftFoot  -13.4295 -0.0889727 -9.22869
LeftToes  1.61887e-010 9.40759e-012 5.52375e-011
45
root  74.5755 38.9097 -7.10427 150.183 -87.8616 -147.134
RightUpLeg  -5.16097 -9.52096 -1.21113
RightLeg  22.0707 -2.22773 -1.25886
RightFoot  -19.5811 0.0310024 2.27506
RightToes  -1.74624e-010 0 -3.6325e-017
Spine  6.41262 -2.40801 2.93162
Spine1  7.02385 -3.53877 5.07869
HEad  -18.2619 6.24917 -8.44267
LeftShoulder1  8.82246 -12.6757 -47.5904
LeftArm  -6.07772 14.541 -20.3481
LeftForeArm  34.1962 -54.1597 -12.7151
LeftHand  -0.244104 0.0205437 5.32207
RightShoulder  5.50962 9.14672 37.5266
RightArm  -8.82779 -26.146 35.8954
RightForeArm  3.68959 62.2288 22.0019
RightHand  -0.0550229 -5.0488 -13.5192
LeftUpLeg  -7.19848 14.7012 9.01882
LeftLeg  25.0328 7.78235 4.4871
LeftFoot  -15.7773 -0.295449 -10.1183
LeftToes  1.61887e-010 9.40759e-012 5.52375e-011
